<?xml version="1.0" encoding="UTF-8"?>
<!-- Created with Inkscape (http://www.inkscape.org/) -->
<svg width="21.248" height="24" version="1.1" viewBox="0 0 5.6218 6.35" xml:space="preserve" xmlns="http://www.w3.org/2000/svg"><g transform="translate(-115.1 -149.12)"><g transform="matrix(.067449 0 0 .067449 109.27 145.28)" image-rendering="auto"><path d="m169.79 125.1c0 1.954-1.086 3.69-2.822 4.775-12.155 7.163-24.526 14.108-36.681 21.271v-45.58c13.24-7.5968 26.263-15.193 39.503-22.79v42.324z" fill="#fff"/><path d="m88.61 78.868c13.24 7.5967 26.263 15.193 39.502 22.79 13.24-7.5962 26.263-15.193 39.503-22.79-12.155-6.9455-24.309-14.108-36.681-21.054-1.736-1.0852-3.907-1.0852-5.643 0-12.155 7.1626-24.526 14.108-36.681 21.054z" fill="#fff"/><path d="m89.264 129.87c12.154 7.163 24.526 14.108 36.68 21.271v-45.58c-13.239-7.5968-26.262-15.193-39.502-22.79v42.324c0 2.171 1.0852 3.907 2.8216 4.775z" fill="#fff"/></g></g></svg>
